<svg width="16" height="16" viewBox="0 0 16 16" fill="none" xmlns="http://www.w3.org/2000/svg">
<path d="M5.51993 1.66697C5.93993 1.67975 6.3466 1.75308 6.7406 1.88708H6.77993C6.8066 1.89975 6.8266 1.91375 6.83993 1.92641C6.98726 1.97375 7.1266 2.02708 7.25993 2.10041L7.51326 2.21375C7.61326 2.26708 7.73326 2.36641 7.79993 2.40708C7.8666 2.44641 7.93993 2.48708 7.99993 2.53308C8.7406 1.96708 9.63993 1.66041 10.5666 1.66697C10.9873 1.66697 11.4073 1.72641 11.8066 1.86041C14.2673 2.66041 15.1539 5.36041 14.4133 7.72041C13.9933 8.92641 13.3066 10.0271 12.4073 10.9264C11.1199 12.1731 9.70726 13.2797 8.1866 14.2331L8.01993 14.3337L7.8466 14.2264C6.3206 13.2797 4.89993 12.1731 3.6006 10.9197C2.70726 10.0204 2.01993 8.92641 1.59326 7.72041C0.83993 5.36041 1.7266 2.66041 4.21393 1.84641C4.40726 1.77975 4.6066 1.73308 4.8066 1.70708H4.8866C5.07393 1.67975 5.25993 1.66697 5.4466 1.66697H5.51993ZM11.4599 3.77375C11.1866 3.67975 10.8866 3.82708 10.7866 4.10708C10.6933 4.38708 10.8399 4.69375 11.1199 4.79308C11.5473 4.95308 11.8333 5.37375 11.8333 5.83975V5.86041C11.8206 6.01308 11.8666 6.16041 11.9599 6.27375C12.0533 6.38708 12.1933 6.45308 12.3399 6.46708C12.6133 6.45975 12.8466 6.24041 12.8666 5.95975V5.88041C12.8866 4.94641 12.3206 4.10041 11.4599 3.77375Z" fill="#E5524A"/>
</svg>
