<svg width="14" height="14" viewBox="0 0 14 14" fill="none" xmlns="http://www.w3.org/2000/svg">
<path d="M7.00004 0.333374C10.6744 0.333374 13.6667 3.32421 13.6667 7.0039C13.6667 10.6759 10.6744 13.6667 7.00004 13.6667C3.32565 13.6667 0.333374 10.6759 0.333374 7.0039C0.333374 3.32421 3.32565 0.333374 7.00004 0.333374ZM6.24071 4.35331C6.09914 4.35331 5.964 4.38547 5.8353 4.44979C5.67443 4.53984 5.54573 4.68134 5.47494 4.84857C5.4299 4.96434 5.35911 5.31167 5.35911 5.3181C5.28833 5.69758 5.24972 6.31504 5.24972 6.99682C5.24972 7.64709 5.28833 8.23818 5.34624 8.6241C5.35268 8.63053 5.42346 9.06146 5.50068 9.2094C5.64225 9.47954 5.91896 9.64677 6.21497 9.64677H6.24071C6.43376 9.64034 6.83916 9.47311 6.83916 9.46667C7.52128 9.18367 8.86619 8.3025 9.40673 7.7172L9.44534 7.67861C9.51613 7.60786 9.60622 7.49851 9.62552 7.47278C9.72848 7.33771 9.77996 7.17049 9.77996 7.0039C9.77996 6.81673 9.72205 6.64307 9.61265 6.50157C9.58691 6.47584 9.49039 6.3665 9.4003 6.27645C8.87263 5.71044 7.49554 4.78425 6.77481 4.50125C6.66542 4.45687 6.38871 4.35974 6.24071 4.35331Z" fill="#FACD66"/>
</svg>
