<svg width="16" height="17" viewBox="0 0 16 17" fill="none" xmlns="http://www.w3.org/2000/svg">
<path d="M2.60666 12.226C2.48 12.226 2.35333 12.1793 2.25333 12.0793C1.34 11.1593 0.833328 9.94599 0.833328 8.65932C0.833328 5.98599 2.99999 3.81266 5.66666 3.81266L9.71333 3.82599L8.98666 3.13266C8.78666 2.93932 8.77999 2.62599 8.97333 2.42599C9.16666 2.22599 9.48 2.21932 9.68 2.41266L11.3067 3.97266C11.4533 4.11266 11.5 4.33266 11.4267 4.51932C11.3533 4.70599 11.1667 4.83266 10.96 4.83266L5.66666 4.81932C3.55333 4.81932 1.83333 6.54599 1.83333 8.66599C1.83333 9.68599 2.23333 10.6527 2.96 11.3793C3.15333 11.5727 3.15333 11.8927 2.96 12.086C2.86 12.1793 2.73333 12.226 2.60666 12.226Z" fill="white"/>
<path d="M6.66666 15.2728C6.53999 15.2728 6.41999 15.2261 6.31999 15.1328L4.69333 13.5728C4.54666 13.4328 4.49999 13.2128 4.57333 13.0261C4.65333 12.8395 4.83999 12.7395 5.03999 12.7128L10.34 12.7261C12.4533 12.7261 14.1733 10.9995 14.1733 8.87945C14.1733 7.85945 13.7733 6.89279 13.0467 6.16612C12.8533 5.97279 12.8533 5.65279 13.0467 5.45945C13.24 5.26612 13.56 5.26612 13.7533 5.45945C14.6667 6.37945 15.1733 7.59279 15.1733 8.87945C15.1733 11.5528 13.0067 13.7261 10.34 13.7261L6.29333 13.7128L7.01999 14.4061C7.21999 14.5995 7.22666 14.9128 7.03333 15.1128C6.92666 15.2195 6.79999 15.2728 6.66666 15.2728Z" fill="white"/>
<path d="M8.16667 11.0527C7.89334 11.0527 7.66667 10.826 7.66667 10.5527V8.29267L7.54 8.43267C7.35334 8.63934 7.04 8.65267 6.83334 8.47267C6.62667 8.29267 6.61334 7.97267 6.79334 7.766L7.79334 6.65267C7.93334 6.49934 8.15334 6.446 8.34667 6.51934C8.54 6.59934 8.66667 6.77934 8.66667 6.99267V10.5593C8.66667 10.8327 8.44 11.0527 8.16667 11.0527Z" fill="white"/>
</svg>
