<?xml version="1.0" encoding="UTF-8"?>
<!DOCTYPE svg PUBLIC "-//W3C//DTD SVG 1.1//EN" "http://www.w3.org/Graphics/SVG/1.1/DTD/svg11.dtd">
<!-- Creator: CorelDRAW 2018 (64-Bit) -->
<svg xmlns="http://www.w3.org/2000/svg" xml:space="preserve" width="32px" height="32px" version="1.1" style="shape-rendering:geometricPrecision; text-rendering:geometricPrecision; image-rendering:optimizeQuality; fill-rule:evenodd; clip-rule:evenodd"
viewBox="0 0 32 32"
 xmlns:xlink="http://www.w3.org/1999/xlink">
 <defs>
  <style type="text/css">
   <![CDATA[
    .fil0 {fill:white}
    .fil2 {fill:black;fill-rule:nonzero}
    .fil1 {fill:#FF6700;fill-rule:nonzero}
   ]]>
  </style>
 </defs>
 <g id="Layer_x0020_1">
  <metadata id="CorelCorpID_0Corel-Layer"/>
  <circle class="fil0" cx="16" cy="16" r="13.67"/>
  <path class="fil1" d="M15.9 13.22c0.9,-1.26 1.35,-2.25 1.35,-2.97 0,-0.5 -0.24,-0.9 -0.72,-1.18 -0.36,-0.21 -0.83,-0.32 -1.42,-0.32 -1.09,0 -2.23,0.13 -3.41,0.39 -2.24,0.48 -4.04,1.04 -5.41,1.67 -1.01,0.46 -1.52,0.88 -1.52,1.28 0,0.21 0.14,0.4 0.41,0.59 0.07,0.06 0.06,0.09 -0.04,0.09 -0.1,0 -0.17,-0.02 -0.22,-0.05 -0.37,-0.25 -0.56,-0.57 -0.56,-0.97 0,-0.39 0.12,-0.78 0.35,-1.17 0.23,-0.39 0.6,-0.73 1.12,-1.01 1.18,-0.68 2.6,-1.23 4.26,-1.65 1.77,-0.46 3.43,-0.68 4.98,-0.68 1.63,0 2.68,0.3 3.15,0.9 0.3,0.39 0.46,0.76 0.46,1.14 0,0.38 -0.07,0.75 -0.22,1.12 -0.27,0.75 -0.71,1.5 -1.32,2.22l-0.68 0.82c0.18,0.1 0.35,0.22 0.5,0.37 0.12,0.15 0.15,0.27 0.09,0.36 -0.06,0.09 -0.17,0.09 -0.33,-0.02 -0.16,-0.1 -0.37,-0.2 -0.61,-0.29 -1.71,2.04 -2.67,3.21 -2.89,3.51 -0.23,0.31 -0.41,0.55 -0.54,0.73 -0.14,0.18 -0.23,0.3 -0.27,0.36 -0.04,0.06 -0.12,0.17 -0.23,0.33 -0.11,0.16 -0.19,0.29 -0.23,0.39 -0.05,0.1 -0.1,0.22 -0.16,0.37 -0.1,0.23 -0.15,0.53 -0.15,0.88 0,0.35 0.15,0.53 0.45,0.53 0.08,0 0.18,-0.02 0.29,-0.05 0.11,-0.03 0.17,-0.01 0.17,0.05 0,0.06 -0.07,0.11 -0.21,0.15 -0.15,0.05 -0.3,0.07 -0.47,0.07 -0.16,0 -0.33,-0.07 -0.5,-0.22 -0.16,-0.15 -0.25,-0.38 -0.25,-0.69 0,-0.31 0.11,-0.66 0.34,-1.07 0.22,-0.41 0.56,-0.92 1.02,-1.55 0.45,-0.62 1.02,-1.36 1.69,-2.2 0.67,-0.85 1.12,-1.42 1.34,-1.71 -0.31,-0.04 -0.75,-0.06 -1.32,-0.06 -0.58,0 -1.36,0.1 -2.36,0.31 -0.15,0.03 -0.35,0.08 -0.59,0.14 -0.24,0.07 -0.41,0.12 -0.52,0.14 -0.46,0.1 -0.73,0.09 -0.8,-0.02 -0.17,-0.1 -0.26,-0.21 -0.26,-0.35 0,-0.13 0.12,-0.3 0.35,-0.49 0.24,-0.19 0.61,-0.34 1.13,-0.43 0.52,-0.1 1.06,-0.15 1.61,-0.15 1.25,0 2.3,0.13 3.15,0.39z"/>
  <path class="fil2" d="M26.82 13.56c-0.1,-0.16 -0.27,-0.24 -0.52,-0.24 -0.24,0 -0.48,0.03 -0.69,0.09 -0.22,0.06 -0.47,0.15 -0.77,0.26 -0.48,0.2 -0.87,0.39 -1.17,0.56 -1.11,0.59 -2.14,1.29 -3.11,2.08 -0.96,0.8 -1.47,1.39 -1.52,1.79 -0.02,0.31 0.15,0.56 0.5,0.76 0.31,0.18 0.67,0.36 1.08,0.53 0.41,0.16 0.7,0.29 0.89,0.38 0.98,0.49 1.48,1.14 1.48,1.96 0,0.36 -0.11,0.7 -0.32,1.04 -0.33,0.51 -0.83,0.94 -1.51,1.28 -0.67,0.34 -1.39,0.58 -2.15,0.72 -0.79,0.13 -1.45,0.2 -1.97,0.2 -0.93,0 -1.87,-0.2 -2.81,-0.6 -0.94,-0.4 -1.52,-1.03 -1.74,-1.88 0.46,0.4 1.08,0.69 1.89,0.87 0.8,0.17 1.57,0.26 2.29,0.26 1.09,-0.02 1.9,-0.1 2.42,-0.26 0.52,-0.16 0.98,-0.35 1.37,-0.57 0.39,-0.21 0.75,-0.47 1.07,-0.76 0.33,-0.29 0.5,-0.61 0.5,-0.96 0,-0.35 -0.24,-0.67 -0.71,-0.95 -0.04,-0.03 -0.41,-0.18 -1.12,-0.47 -0.71,-0.28 -1.25,-0.59 -1.63,-0.94 -0.37,-0.35 -0.56,-0.74 -0.56,-1.19 0,-0.84 0.52,-1.69 1.55,-2.56 1.04,-0.87 2.17,-1.55 3.4,-2.03 1.23,-0.48 2.28,-0.72 3.14,-0.72 0.6,0 1.07,0.11 1.41,0.32 0.33,0.22 0.5,0.52 0.5,0.9 0,0.05 0,0.11 0,0.17 -0.04,0.38 -0.71,1.18 -2.02,2.39 -0.48,0.44 -0.91,0.94 -1.27,1.49 -0.36,0.55 -0.55,1.03 -0.55,1.45 0,0.04 0,0.08 0,0.11 -0.38,-0.29 -0.57,-0.69 -0.57,-1.18 0,-0.45 0.19,-0.99 0.57,-1.63 0.56,-0.94 1.44,-1.83 2.65,-2.67z"/>
 </g>
</svg>
