<svg width="16" height="17" viewBox="0 0 16 17" fill="none" xmlns="http://www.w3.org/2000/svg">
<path d="M14.5 12.7593C14.5 12.746 14.4933 12.7326 14.4933 12.7193C14.4867 12.666 14.48 12.6126 14.46 12.566C14.4333 12.506 14.4 12.4593 14.36 12.4126C14.36 12.4126 14.36 12.406 14.3533 12.406C14.3067 12.3593 14.2533 12.326 14.1933 12.2993C14.1333 12.2726 14.0667 12.2593 14 12.2593L10.8867 12.2726C10.8867 12.2726 10.8867 12.2726 10.88 12.2726C10.48 12.2726 10.0933 12.086 9.85333 11.766L9.04 10.7193C8.87333 10.4993 8.56 10.4593 8.34 10.6326C8.12 10.806 8.08 11.1126 8.25333 11.3326L9.06666 12.3793C9.5 12.9393 10.18 13.2726 10.8867 13.2726H10.8933L12.7933 13.266L12.32 13.7393C12.1267 13.9326 12.1267 14.2526 12.32 14.446C12.42 14.546 12.5467 14.5926 12.6733 14.5926C12.8 14.5926 12.9267 14.546 13.0267 14.446L14.36 13.1126C14.4067 13.066 14.44 13.0126 14.4667 12.9526C14.4867 12.886 14.5 12.8193 14.5 12.7593Z" fill="white"/>
<path d="M5.61333 5.23263C5.18 4.63263 4.48667 4.2793 3.74667 4.2793C3.74 4.2793 3.74 4.2793 3.73333 4.2793L2 4.28596C1.72667 4.28596 1.5 4.51263 1.5 4.78596C1.5 5.0593 1.72667 5.28596 2 5.28596L3.74 5.2793H3.74667C4.16667 5.2793 4.56 5.4793 4.8 5.8193L5.52 6.8193C5.62 6.95263 5.77333 7.02596 5.92667 7.02596C6.02667 7.02596 6.13333 6.99263 6.22 6.93263C6.44667 6.76596 6.49333 6.45263 6.33333 6.23263L5.61333 5.23263Z" fill="white"/>
<path d="M14.4933 4.82594C14.4933 4.8126 14.5 4.79927 14.5 4.7926C14.5 4.72594 14.4867 4.65927 14.46 4.59927C14.4333 4.53927 14.4 4.48594 14.3533 4.43927L13.02 3.10594C12.8267 2.9126 12.5067 2.9126 12.3133 3.10594C12.12 3.29927 12.12 3.61927 12.3133 3.8126L12.7867 4.28594L10.9667 4.27927C10.96 4.27927 10.96 4.27927 10.9533 4.27927C10.1867 4.27927 9.46667 4.65927 9.04 5.30594L4.78 11.6926C4.54 12.0526 4.13333 12.2726 3.7 12.2726H3.69333L2 12.2593C1.72667 12.2593 1.5 12.4793 1.5 12.7593C1.5 13.0326 1.72 13.2593 2 13.2593L3.7 13.2659C3.70667 13.2659 3.70667 13.2659 3.71333 13.2659C4.48667 13.2659 5.2 12.8859 5.62667 12.2393L9.88667 5.8526C10.1267 5.4926 10.5333 5.2726 10.9667 5.2726H10.9733L14 5.28594C14.0667 5.28594 14.1267 5.2726 14.1933 5.24594C14.2533 5.21927 14.3067 5.18594 14.3533 5.13927C14.3533 5.13927 14.3533 5.1326 14.36 5.1326C14.4 5.08594 14.44 5.03927 14.46 4.97927C14.48 4.9326 14.4867 4.87927 14.4933 4.82594Z" fill="white"/>
</svg>
